# xmcd
#
# Track frame offsets:
#	150
#	21572
#	34712
#	51522
#	68207
#	86935
#	102832
#	117842
#	136362
#	151115
#
# Disc length: 2246 seconds
# Revision: 1
# Processed by: cddbd v1.5.2PL0 Copyright (c) Steve Scherf et al.
# Submitted via: dBpowerAMP V12.0
#
DISCID=8808c40a
DTITLE=Daniel Ray Edwards - Desire
DYEAR=1994
DGENRE=Country
TTITLE0=Desire
TTITLE1=You Win Again
TTITLE2=Tupelo Honey
TTITLE3=Oh What A Night This Could Be
TTITLE4=I'll Always Be True
TTITLE5=I Fought The Law
TTITLE6=Crystal Blue
TTITLE7=If I Had All These Things
TTITLE8=Born And Bred
TTITLE9=Red River Valley
EXTD=
EXTT0=
EXTT1=
EXTT2=
EXTT3=
EXTT4=
EXTT5=
EXTT6=
EXTT7=
EXTT8=
EXTT9=
PLAYORDER=
